<svg width="52" height="102" viewBox="0 0 52 102" fill="none" xmlns="http://www.w3.org/2000/svg">
<g clip-path="url(#clip0_4_25)">
<g filter="url(#filter0_d_4_25)">
<path fill-rule="evenodd" clip-rule="evenodd" d="M26 47C37.598 47 47 56.402 47 68C47 76.8926 41.4727 84.4942 33.6663 87.5567L27.1961 96.4007C27.0612 96.5858 26.8821 96.7369 26.6739 96.8412C26.4657 96.9455 26.2346 97 26 97C25.7654 97 25.5343 96.9455 25.3261 96.8412C25.1179 96.7369 24.9388 96.5858 24.8039 96.4007L18.3337 87.5567C10.5273 84.4941 5 76.8926 5 68C5 56.402 14.402 47 26 47Z" fill="#F57C00"/>
</g>
<circle cx="26" cy="26" r="21" fill="#F57C00"/>
<rect x="5" y="26" width="42" height="42" fill="#F57C00"/>
</g>
<defs>
<filter id="filter0_d_4_25" x="0" y="43" width="52" height="60" filterUnits="userSpaceOnUse" color-interpolation-filters="sRGB">
<feFlood flood-opacity="0" result="BackgroundImageFix"/>
<feColorMatrix in="SourceAlpha" type="matrix" values="0 0 0 0 0 0 0 0 0 0 0 0 0 0 0 0 0 0 127 0" result="hardAlpha"/>
<feOffset dy="1"/>
<feGaussianBlur stdDeviation="2.5"/>
<feComposite in2="hardAlpha" operator="out"/>
<feColorMatrix type="matrix" values="0 0 0 0 0 0 0 0 0 0 0 0 0 0 0 0 0 0 0.1 0"/>
<feBlend mode="normal" in2="BackgroundImageFix" result="effect1_dropShadow_4_25"/>
<feBlend mode="normal" in="SourceGraphic" in2="effect1_dropShadow_4_25" result="shape"/>
</filter>
<clipPath id="clip0_4_25">
<rect width="42" height="92" fill="white" transform="translate(5 5)"/>
</clipPath>
</defs>
</svg>
