<svg width="52" height="59" viewBox="0 0 52 59" fill="none" xmlns="http://www.w3.org/2000/svg">
<g filter="url(#filter0_d_1_10)">
<path fill-rule="evenodd" clip-rule="evenodd" d="M26 4C37.598 4 47 13.402 47 25C47 33.8926 41.4727 41.4942 33.6663 44.5567L27.1961 53.4007C27.0612 53.5858 26.8821 53.7369 26.6739 53.8412C26.4657 53.9455 26.2346 54 26 54C25.7654 54 25.5343 53.9455 25.3261 53.8412C25.1179 53.7369 24.9388 53.5858 24.8039 53.4007L18.3337 44.5567C10.5273 41.4941 5 33.8926 5 25C5 13.402 14.402 4 26 4Z" fill="#F57C00"/>
</g>
<defs>
<filter id="filter0_d_1_10" x="0" y="0" width="52" height="60" filterUnits="userSpaceOnUse" color-interpolation-filters="sRGB">
<feFlood flood-opacity="0" result="BackgroundImageFix"/>
<feColorMatrix in="SourceAlpha" type="matrix" values="0 0 0 0 0 0 0 0 0 0 0 0 0 0 0 0 0 0 127 0" result="hardAlpha"/>
<feOffset dy="1"/>
<feGaussianBlur stdDeviation="2.5"/>
<feComposite in2="hardAlpha" operator="out"/>
<feColorMatrix type="matrix" values="0 0 0 0 0 0 0 0 0 0 0 0 0 0 0 0 0 0 0.1 0"/>
<feBlend mode="normal" in2="BackgroundImageFix" result="effect1_dropShadow_1_10"/>
<feBlend mode="normal" in="SourceGraphic" in2="effect1_dropShadow_1_10" result="shape"/>
</filter>
</defs>
</svg>
